<?xml version="1.0" encoding="UTF-8"?>
<svg id="Layer_2" data-name="Layer 2" xmlns="http://www.w3.org/2000/svg" viewBox="0 0 413.96 428.39">
  <defs>
    <style>
      .cls-1 {
        fill: #6510ff;
      }
      @media (prefers-color-scheme: dark){
         .cls-1 {
        fill: #9c3ef9;
      }
      }
    </style>
  </defs>
  <g id="Layer_1-2" data-name="Layer 1">
    <g>
      <rect class="cls-1" y="115.71" width="88.12" height="244.46"/>
      <path class="cls-1" d="M413.96,144.62v217.26h-88.07V189.13c0-11.72-3.1-23.33-9.73-33-7.96-11.61-19.9-19.68-37.65-19.68-29.52,0-44.56,20.62-52.24,42.4-4.31,12.27-6.19,25.32-6.19,38.37v211.18h-88.01V110.35c7.02,2.93,35.66,19.07,68.5,5.31,13.82-5.75,28.36-15.7,42.35-32.18,19.18-22.56,58.32-33.06,89.89-28.14,45.77,7.19,81.16,45.44,81.16,89.28Z"/>
      <circle class="cls-1" cx="169.5" cy="49.42" r="49.42"/>
    </g>
  </g>
</svg>