<svg xmlns="http://www.w3.org/2000/svg" version="1.1" xmlns:xlink="http://www.w3.org/1999/xlink" xmlns:svgjs="http://svgjs.com/svgjs" width="1000" height="1000"><svg version="1.1" id="SvgjsSvg1000" xmlns="http://www.w3.org/2000/svg" xmlns:xlink="http://www.w3.org/1999/xlink" x="0px" y="0px" viewBox="0 0 1000 1000" style="enable-background:new 0 0 1000 1000;" xml:space="preserve">
<style type="text/css">
	.st0{fill:#6D28D9;}
</style>
<g>
	<rect x="125.6" y="321.9" class="st0" width="159.4" height="442.2"></rect>
	<path class="st0" d="M874.4,374.2v393H715.1V454.7c0-21.2-5.6-42.2-17.6-59.7c-14.4-21-36-35.6-68.1-35.6
		c-53.4,0-80.6,37.3-94.5,76.7c-7.8,22.2-11.2,45.8-11.2,69.4v382H364.5V312.2c12.7,5.3,64.5,34.5,123.9,9.6
		c25-10.4,51.3-28.4,76.6-58.2c34.7-40.8,105.5-59.8,162.6-50.9C810.4,225.7,874.4,294.9,874.4,374.2z"></path>
	<circle class="st0" cx="432.2" cy="202" r="89.4"></circle>
</g>
</svg><style>@media (prefers-color-scheme: light) { :root { filter: none; } }
@media (prefers-color-scheme: dark) { :root { filter: contrast(0.7407407407407407) brightness(2); } }
</style></svg>