<svg width="34" height="33" viewBox="0 0 34 33" fill="none" xmlns="http://www.w3.org/2000/svg">
<path d="M4.22852 7.15169C5.72368 5.23385 7.63704 3.68275 9.82269 2.61666C12.0083 1.55056 14.4086 0.997627 16.8404 1.00001C25.6762 1.00001 32.8404 8.16288 32.8404 17C32.8404 22.9725 29.5674 28.1808 24.7175 30.929" stroke="#0c5179" stroke-width="1.25"/>
<path fill-rule="evenodd" clip-rule="evenodd" d="M20.0651 32.6748C19.0041 32.8918 17.9238 33.0008 16.8408 32.9999C8.0037 32.9999 0.84082 25.837 0.84082 16.9999C0.84082 14.8559 1.26194 12.8092 2.02738 10.9404C3.64786 10.006 5.64978 9.86905 7.92178 10.2134C9.24018 12.6556 9.77778 14.9852 9.16978 17.3212C8.32208 18.1937 7.30558 18.8844 6.18226 19.3513C7.1973 22.9404 9.55506 25.0806 12.2162 26.8943C12.9345 25.8245 13.8587 24.9086 14.9349 24.1999C17.4603 24.2498 19.5378 25.4543 21.5563 27.0095C21.6856 29.3071 21.2453 31.2194 20.0651 32.6748Z" fill="#0EA5E9"/>
<path d="M14.209 14.7141C14.6991 15.9179 15.5368 16.9484 16.6152 17.6741C17.6935 18.3997 18.9636 18.7877 20.2634 18.7884C21.5636 18.7882 22.8342 18.4005 23.9131 17.6748C24.9919 16.9491 25.83 15.9183 26.3203 14.7141" stroke="#0C4A6E" stroke-width="1.25"/>
</svg>
