<?xml version="1.0" standalone="no"?>
<!DOCTYPE svg PUBLIC "-//W3C//DTD SVG 20010904//EN"
 "http://www.w3.org/TR/2001/REC-SVG-20010904/DTD/svg10.dtd">
<svg version="1.0" xmlns="http://www.w3.org/2000/svg"
 width="856.000000pt" height="856.000000pt" viewBox="0 0 856.000000 856.000000"
 preserveAspectRatio="xMidYMid meet">
<metadata>
Created by potrace 1.14, written by Peter Selinger 2001-2017
</metadata>
<g transform="translate(0.000000,856.000000) scale(0.100000,-0.100000)"
fill="#000000" stroke="none">
<path d="M3419 8555 c-2 -1 -20 -5 -39 -8 -143 -23 -301 -87 -417 -170 -93
-67 -201 -183 -265 -283 -26 -42 -89 -167 -94 -189 -1 -5 -13 -48 -25 -95 -34
-124 -33 -349 1 -480 28 -111 107 -277 165 -349 102 -127 225 -229 350 -290
83 -41 205 -84 213 -76 3 2 13 0 24 -6 47 -25 347 -29 386 -5 7 4 12 5 12 2 0
-2 15 0 33 5 17 6 42 12 53 15 105 21 302 137 402 235 81 80 92 93 147 179
103 158 152 326 158 535 1 52 -16 210 -23 210 -1 0 -4 11 -6 25 -2 14 -14 50
-25 80 -11 30 -21 59 -22 64 -1 5 -19 40 -39 79 -21 38 -38 74 -38 78 0 5 -4
9 -8 9 -4 0 -16 15 -27 33 -25 42 -168 184 -225 223 -109 75 -229 130 -340
155 -25 6 -54 13 -65 16 -23 6 -281 13 -286 8z"/>
<path d="M6328 7475 c-2 -2 -34 -6 -73 -9 -38 -3 -81 -8 -95 -10 -14 -3 -41
-7 -60 -10 -19 -3 -46 -8 -60 -11 -14 -3 -38 -8 -54 -11 -41 -7 -213 -54 -251
-68 -11 -5 -38 -15 -60 -23 -22 -8 -53 -20 -70 -26 -42 -17 -247 -118 -260
-129 -5 -4 -35 -24 -65 -44 -91 -61 -181 -138 -255 -220 -116 -129 -275 -286
-360 -356 -90 -73 -242 -177 -298 -204 -20 -10 -37 -21 -37 -26 0 -4 -5 -8
-10 -8 -6 0 -47 -17 -93 -39 -99 -47 -242 -96 -323 -110 -32 -6 -70 -13 -84
-16 -14 -3 -55 -7 -92 -9 -36 -2 -70 -6 -75 -9 -5 -3 -15 -2 -23 3 -7 4 -23 4
-36 0 -12 -5 -24 -6 -27 -3 -3 3 -34 7 -69 8 -35 2 -79 6 -98 10 -19 3 -48 8
-65 11 -16 3 -48 10 -70 16 -22 6 -47 11 -55 12 -8 2 -22 5 -30 8 -8 4 -46 16
-85 28 -73 23 -245 94 -276 113 -10 6 -21 8 -24 5 -5 -4 -9 -6114 -5 -6331 0
-16 47 -17 878 -15 l877 3 1 2160 c1 1961 3 2241 19 2355 19 145 22 163 45
256 11 43 22 88 25 98 51 213 236 557 358 665 10 9 39 36 65 60 91 84 298 191
402 206 14 2 36 6 49 9 117 26 361 23 412 -4 9 -5 18 -7 21 -5 16 16 255 -91
304 -136 11 -10 24 -19 28 -19 10 0 119 -112 153 -158 15 -20 30 -39 33 -42 8
-8 29 -43 42 -70 7 -14 15 -27 18 -30 6 -5 18 -30 54 -112 36 -80 70 -226 81
-343 1 -16 3 -825 4 -1797 l1 -1768 880 0 880 0 -3 2263 c-2 1244 -6 2276 -9
2292 -3 17 -9 46 -13 65 -6 37 -23 113 -39 175 -1 6 -11 35 -21 65 -11 30 -20
57 -20 60 0 3 -11 27 -23 54 -12 27 -22 55 -22 62 0 8 -4 14 -8 14 -4 0 -13
15 -20 33 -19 53 -108 196 -182 292 -205 269 -500 496 -805 619 -38 16 -79 32
-90 36 -20 9 -122 42 -140 46 -49 12 -164 37 -180 39 -11 2 -20 4 -20 5 0 1
-16 3 -35 5 -19 2 -51 6 -70 10 -34 7 -386 15 -392 10z"/>
<path d="M150 3807 l0 -2443 880 0 880 0 0 2442 0 2443 -880 0 -880 0 0 -2442z"/>
</g>
</svg>
