<?xml version="1.0" encoding="UTF-8"?>
<svg id="Layer_2" data-name="Layer 2" xmlns="http://www.w3.org/2000/svg" xmlns:xlink="http://www.w3.org/1999/xlink" viewBox="0 0 1709.25 476.25">
  <defs>
    <style>
      .cls-1 {
        fill: url(#radial-gradient);
      }

      .cls-2 {
        fill: #e4e7eb;
      }

      .cls-3 {
        fill: url(#radial-gradient-2);
      }

      .cls-4 {
        fill: url(#radial-gradient-3);
      }
    </style>
    <radialGradient id="radial-gradient" cx="1460.23" cy="483.97" fx="1460.23" fy="483.97" r="407.54" gradientUnits="userSpaceOnUse">
      <stop offset="0" stop-color="#c9a1ff"/>
      <stop offset="1" stop-color="#7319ff"/>
    </radialGradient>
    <radialGradient id="radial-gradient-2" cy="483.97" fy="483.97" r="407.54" xlink:href="#radial-gradient"/>
    <radialGradient id="radial-gradient-3" r="407.54" xlink:href="#radial-gradient"/>
  </defs>
  <g id="Layer_1-2" data-name="Layer 1">
    <g>
      <g>
        <rect class="cls-2" x="673.04" y=".19" width="88.12" height="407.84"/>
        <polygon class="cls-2" points="305.92 71.89 305.92 71.92 305.9 71.89 305.92 71.89"/>
        <path class="cls-2" d="M589.38,140.9c-12.21-13.09-27.17-23.27-44.87-30.53-17.7-7.25-38.06-10.88-61.06-10.88-27.61,0-52.39,6.55-74.34,19.65-21.95,13.1-39.38,30.98-52.3,53.63-12.93,22.66-19.38,48.5-19.38,77.52s6.19,53.45,18.58,76.46c12.39,23.01,29.91,41.33,52.57,54.96,22.65,13.63,49.38,20.44,80.18,20.44,19.82,0,38.05-2.92,54.69-8.76,16.63-5.84,31.06-14.07,43.28-24.69,12.21-10.62,21.15-23.01,26.81-37.17l-63.72-30.26c-5.67,9.91-13.54,17.7-23.63,23.36-10.09,5.67-22.22,8.49-36.37,8.49-15.58,0-28.86-3.45-39.82-10.35-10.98-6.9-19.12-16.54-24.43-28.94-2.74-6.38-4.57-13.29-5.52-20.71h203.05c1.41-3.89,2.39-8.58,2.92-14.07,.53-5.48,.8-11.06,.8-16.73,0-20.18-3.19-38.85-9.56-56.02-6.37-17.17-15.66-32.3-27.88-45.4Zm-141.51,32.39c9.91-6.72,21.77-10.09,35.58-10.09s26.1,3.45,35.84,10.35c9.73,6.9,16.54,16.29,20.44,28.14,1.36,4.13,2.25,8.47,2.7,13.01h-120.31c.92-4.11,2.06-8.01,3.45-11.68,4.95-13.09,12.39-23.01,22.3-29.74Z"/>
        <polygon class="cls-2" points="1193.8 112.23 1137.4 280.57 1074.86 112.23 1005.83 112.23 942.81 280.72 886.36 112.23 804.06 112.23 903.88 402.15 972.91 402.15 1040.3 216.27 1107.25 402.15 1176.28 402.15 1276.63 112.23 1193.8 112.23"/>
        <polygon class="cls-2" points="395 0 395 60.64 391.24 65.56 360.91 105.22 331.86 143.14 331.22 143.98 212.39 299.64 201.77 299.64 82.3 137.48 82.3 402.14 0 402.14 0 .19 79.65 .19 208.94 174.41 334.35 .43 334.35 0 395 0"/>
      </g>
      <g>
        <rect class="cls-1" x="1295.29" y="163.57" width="88.12" height="244.46"/>
        <path class="cls-3" d="M1709.25,192.48v217.26h-88.07V236.99c0-11.72-3.1-23.33-9.73-33-7.96-11.61-19.9-19.68-37.65-19.68-29.52,0-44.56,20.62-52.24,42.4-4.31,12.27-6.19,25.32-6.19,38.37v211.18h-88.01V158.21c7.02,2.93,35.66,19.07,68.5,5.31,13.82-5.75,28.36-15.7,42.35-32.18,19.18-22.56,58.32-33.06,89.89-28.14,45.77,7.19,81.16,45.44,81.16,89.28Z"/>
        <circle class="cls-4" cx="1464.79" cy="97.28" r="49.42"/>
      </g>
    </g>
  </g>
</svg>